<?xml version="1.0" encoding="UTF-8" standalone="no"?>
<!DOCTYPE svg PUBLIC "-//W3C//DTD SVG 1.1//EN" "http://www.w3.org/Graphics/SVG/1.1/DTD/svg11.dtd">
<svg xmlns="http://www.w3.org/2000/svg" version="1.1" viewBox="0 0 502 76">
<path fill="#a54a38" d="
  M 12.94 76.00
  L 8.44 76.00
  Q 4.45 75.37 1.15 73.04
  A 1.57 1.46 10.6 0 1 0.58 72.27
  C -1.16 67.02 6.08 63.62 7.59 68.00
  Q 7.75 68.46 7.24 68.33
  C 1.90 66.89 -0.22 72.24 4.60 72.14
  Q 12.37 71.97 16.28 64.54
  Q 21.66 54.31 24.27 46.98
  A 0.33 0.32 6.9 0 0 23.93 46.56
  C 19.67 46.89 12.78 47.15 14.07 40.71
  C 14.12 40.50 14.74 39.80 14.92 39.83
  A 0.58 0.30 -75.7 0 1 15.07 40.48
  Q 14.55 42.40 15.89 43.04
  C 17.61 43.87 25.47 41.03 27.47 40.31
  A 1.01 1.01 0.9 0 0 28.10 39.68
  Q 32.60 25.76 35.39 11.48
  C 36.04 8.14 35.31 5.58 33.54 2.91
  A 1.36 0.83 68.8 0 0 32.78 2.33
  L 30.34 1.94
  A 1.42 0.36 4.5 0 1 29.45 1.64
  C 26.83 -0.64 34.96 1.32 36.32 1.77
  C 42.19 3.71 49.35 3.41 55.52 3.87
  A 1.29 1.05 -13.8 0 1 56.36 4.27
  Q 57.17 5.25 55.49 5.05
  Q 52.27 4.66 51.08 7.07
  A 1.56 1.18 57.7 0 0 51.00 8.01
  Q 54.22 21.26 57.16 34.55
  C 58.90 42.38 61.79 52.41 63.51 61.51
  C 64.40 66.29 70.28 73.14 76.04 70.87
  A 1.97 1.14 -38.5 0 1 76.99 70.73
  Q 79.40 71.12 77.62 72.93
  A 1.05 0.98 24.3 0 1 76.77 73.22
  C 67.80 72.19 62.19 70.42 51.84 72.59
  C 51.05 72.75 47.41 74.81 49.44 72.20
  A 1.77 1.37 4.6 0 1 50.25 71.67
  L 54.05 70.49
  Q 55.75 69.97 55.35 68.14
  L 51.45 50.10
  Q 50.94 47.75 48.83 46.64
  Q 42.12 43.12 34.67 45.18
  A 2.40 2.39 5.8 0 0 33.17 46.40
  C 27.36 57.65 25.65 70.66 12.94 76.00
  Z
  M 35.75 39.57
  C 41.09 40.27 44.60 39.98 48.92 43.10
  Q 50.24 44.06 49.81 42.48
  Q 45.95 28.46 43.39 14.86
  Q 42.97 12.61 42.35 14.81
  Q 40.47 21.36 38.75 27.97
  C 37.90 31.26 35.96 35.05 35.33 39.01
  A 0.49 0.48 -82.0 0 0 35.75 39.57
  Z"
/>
<path fill="#a54a38" d="
  M 100.62 49.30
  C 99.38 42.35 100.97 27.48 91.81 25.00
  C 88.90 24.22 90.81 22.77 92.62 23.35
  C 98.69 25.32 106.96 21.92 111.64 18.36
  A 1.18 0.89 -51.6 0 1 112.53 18.13
  C 115.12 18.79 108.08 23.62 107.54 24.00
  C 104.90 25.81 104.34 27.20 104.30 30.25
  C 104.17 40.70 103.19 54.26 109.80 62.58
  A 1.35 1.35 -28.5 0 1 109.17 64.70
  Q 106.89 65.45 105.32 63.92
  C 100.43 59.12 93.13 53.71 89.69 47.90
  Q 86.94 43.24 82.70 39.81
  A 0.33 0.32 27.4 0 0 82.18 39.97
  Q 81.50 42.52 81.88 45.00
  C 83.19 53.44 79.40 57.01 88.33 62.38
  Q 89.70 63.20 88.72 63.81
  A 1.52 1.00 24.8 0 1 87.78 63.95
  Q 80.63 62.88 73.74 64.89
  C 72.14 65.35 71.28 64.15 73.12 63.47
  Q 76.46 62.21 76.93 58.84
  C 77.40 55.57 78.45 51.37 78.28 48.75
  Q 77.37 34.33 77.40 31.31
  Q 77.43 27.66 74.40 26.76
  A 0.81 0.68 8.0 0 1 73.84 26.14
  Q 73.75 24.99 74.88 25.02
  C 80.02 25.15 82.28 24.67 85.46 29.54
  C 87.04 31.96 98.31 49.80 100.32 49.78
  A 0.41 0.32 83.5 0 0 100.62 49.30
  Z"
/>
<path fill="#a54a38" d="
  M 322.05 40.04
  C 321.72 46.64 319.88 58.85 327.68 62.01
  C 328.71 62.42 330.10 64.32 327.53 63.93
  Q 320.84 62.93 314.39 64.71
  C 309.27 66.13 314.10 62.81 314.93 62.36
  A 3.09 3.06 82.0 0 0 316.46 60.31
  C 317.46 55.63 318.36 51.19 318.10 46.20
  Q 317.67 37.97 317.27 29.75
  C 317.18 27.82 312.20 25.89 314.26 25.29
  C 320.22 23.57 323.44 26.29 326.63 31.33
  C 327.84 33.23 338.90 50.49 340.45 49.79
  A 0.66 0.45 71.9 0 0 340.66 49.08
  C 338.33 40.91 342.00 27.83 330.80 24.61
  A 0.60 0.51 15.1 0 1 330.37 23.98
  Q 330.62 22.95 332.00 23.30
  C 337.11 24.59 340.82 23.73 346.80 21.41
  C 348.80 20.63 350.17 19.03 352.23 18.13
  A 0.42 0.39 -15.4 0 1 352.81 18.43
  Q 352.95 19.54 351.80 20.56
  C 347.48 24.41 343.81 24.99 344.04 32.00
  Q 344.34 41.00 344.80 50.45
  Q 344.94 53.29 346.43 55.71
  C 347.79 57.91 347.52 60.03 349.66 62.47
  Q 351.04 64.06 349.05 64.73
  Q 346.90 65.45 345.32 63.92
  C 340.29 59.00 333.22 53.71 329.58 47.77
  Q 326.81 43.24 322.75 39.74
  Q 322.09 39.18 322.05 40.04
  Z"
/>
<path fill="#a54a38" d="
  M 431.31 60.68
  C 432.02 61.15 434.53 62.56 434.76 63.29
  Q 435.00 64.12 434.00 64.00
  Q 425.95 63.07 419.45 64.83
  C 418.90 64.97 416.72 64.86 418.26 63.68
  C 420.02 62.33 421.63 62.88 422.23 60.08
  Q 424.07 51.55 423.99 49.76
  Q 423.56 39.36 422.89 29.51
  A 1.95 1.93 -76.4 0 0 421.97 27.99
  Q 418.50 25.90 420.03 25.46
  C 429.76 22.66 433.26 32.77 437.29 39.17
  C 439.60 42.83 442.74 45.95 445.50 49.38
  A 0.92 0.48 57.1 0 0 446.21 49.78
  C 446.57 49.71 446.56 49.34 446.46 49.05
  C 443.58 40.84 448.12 28.08 436.54 24.61
  A 0.59 0.53 15.1 0 1 436.12 23.97
  Q 436.42 22.79 438.00 23.26
  C 444.72 25.29 452.15 22.11 457.78 18.07
  Q 458.36 17.65 458.80 18.13
  A 0.69 0.58 -48.5 0 1 458.78 18.95
  C 455.46 23.30 449.72 24.33 449.79 30.56
  C 449.96 44.93 449.35 52.98 455.47 62.92
  A 0.89 0.80 45.3 0 1 455.51 63.79
  C 454.26 65.93 452.01 64.90 450.58 63.49
  Q 444.33 57.35 437.85 51.39
  C 434.71 48.50 433.19 43.21 429.08 40.37
  Q 427.35 39.17 427.47 41.27
  C 427.77 46.84 426.12 57.22 431.31 60.68
  Z"
/>
<path fill="#a54a38" d="
  M 460.92 18.44
  Q 460.92 17.77 461.39 18.04
  A 1.02 0.13 60.6 0 1 461.86 18.67
  L 464.36 22.96
  A 0.98 0.66 -12.4 0 0 465.19 23.29
  C 467.18 23.17 469.15 23.15 471.12 22.54
  Q 486.65 17.74 495.66 29.91
  C 498.21 33.35 499.07 38.22 501.12 42.34
  Q 501.95 44.02 500.84 45.52
  C 496.57 51.30 493.04 58.15 485.18 59.29
  A 1.68 0.76 -52.9 0 0 484.36 59.74
  L 481.43 62.37
  A 0.99 0.70 28.0 0 1 480.54 62.48
  C 476.84 61.27 466.60 59.14 463.95 63.36
  C 463.13 64.67 462.26 63.78 462.98 62.67
  Q 464.85 59.83 467.97 59.50
  Q 470.77 59.21 471.15 56.42
  Q 472.41 47.11 470.24 38.23
  C 469.15 33.75 470.98 30.94 467.90 26.58
  A 1.35 1.17 -9.7 0 0 467.11 26.10
  Q 460.90 24.92 460.92 18.44
  Z
  M 477.43 41.24
  C 477.45 45.18 476.88 49.96 477.93 54.62
  A 0.73 0.66 84.9 0 0 478.53 55.18
  L 483.25 55.52
  A 3.67 2.94 -60.1 0 0 485.73 54.55
  C 491.68 49.05 496.20 39.04 490.52 31.71
  C 487.48 27.78 483.18 23.93 477.70 25.39
  A 0.66 0.65 82.2 0 0 477.22 26.04
  Q 477.39 33.66 477.43 41.24
  Z"
/>
<path fill="#a54a38" d="
  M 279.44 45.76
  C 279.18 32.25 285.27 26.56 296.97 20.39
  A 1.54 1.53 -34.1 0 1 298.84 20.74
  C 302.21 24.59 309.39 29.35 309.66 34.63
  C 310.00 41.63 308.29 49.98 302.80 54.81
  Q 299.13 58.02 295.98 61.74
  Q 294.63 63.33 292.86 62.22
  C 283.74 56.49 279.69 58.60 279.44 45.76
  Z
  M 300.24 50.65
  Q 301.44 49.37 301.73 47.25
  C 302.25 43.44 303.06 37.14 300.84 33.77
  C 299.48 31.71 297.78 28.75 295.46 28.00
  C 291.07 26.58 286.74 31.90 286.74 36.00
  C 286.75 41.35 285.99 48.19 287.86 53.22
  A 1.70 1.56 9.8 0 0 288.45 53.98
  L 292.90 57.11
  A 1.08 1.00 38.9 0 0 294.25 57.02
  L 300.24 50.65
  Z"
/>
<path fill="#a54a38" d="
  M 207.10 51.68
  C 203.48 57.98 201.13 64.17 192.20 61.02
  Q 186.55 59.02 185.90 53.74
  C 183.82 36.86 204.80 43.47 206.27 30.45
  A 0.95 0.92 23.7 0 0 205.93 29.62
  C 201.94 26.37 193.02 21.03 190.33 29.05
  A 0.67 0.61 26.4 0 0 190.61 29.77
  Q 191.68 30.48 191.50 31.74
  A 0.85 0.79 -4.5 0 1 190.91 32.38
  Q 188.66 33.02 187.94 31.07
  C 186.49 27.15 194.13 21.49 197.37 21.34
  C 202.05 21.11 206.48 25.11 210.96 26.45
  Q 213.11 27.09 213.28 30.56
  Q 213.39 32.74 212.68 34.81
  C 211.35 38.66 210.48 52.53 216.01 55.06
  A 0.78 0.60 18.1 0 1 216.48 55.75
  Q 216.39 56.48 215.74 56.51
  Q 210.31 56.82 208.36 51.78
  Q 207.83 50.41 207.10 51.68
  Z
  M 197.87 47.48
  L 197.43 46.62
  A 0.84 0.78 -14.0 0 0 196.67 46.20
  Q 191.58 46.35 192.99 50.46
  C 193.70 52.53 196.09 53.70 197.50 55.62
  A 0.38 0.37 45.5 0 0 198.10 55.63
  C 200.13 52.97 206.53 47.28 205.80 43.03
  A 1.28 1.14 -79.8 0 0 205.30 42.22
  C 201.95 40.03 200.40 45.15 199.64 47.24
  A 1.08 0.51 -75.4 0 1 199.05 47.95
  L 198.55 48.04
  A 0.91 0.46 66.4 0 1 197.87 47.48
  Z"
/>
<path fill="#a54a38" d="
  M 404.28 29.27
  C 400.45 26.54 391.15 20.89 389.01 29.07
  A 0.81 0.68 28.6 0 0 389.31 29.84
  Q 390.99 31.18 389.36 32.52
  A 0.90 0.86 35.3 0 1 388.48 32.65
  C 381.72 29.91 391.61 22.99 394.25 21.62
  Q 396.45 20.48 398.70 21.51
  C 402.30 23.16 405.77 25.03 409.47 26.45
  C 412.87 27.75 412.25 31.11 411.41 34.33
  C 410.36 38.33 408.91 52.88 414.47 54.89
  A 0.96 0.69 10.4 0 1 415.08 55.52
  Q 415.21 56.51 413.74 56.51
  Q 408.65 56.49 406.96 51.66
  Q 406.55 50.50 405.91 51.55
  C 403.37 55.66 400.80 62.26 394.78 61.98
  C 388.80 61.71 384.04 57.89 384.22 51.64
  C 384.62 37.24 405.27 42.11 404.72 30.06
  A 1.02 1.00 16.6 0 0 404.28 29.27
  Z
  M 403.88 42.20
  C 400.68 40.51 399.40 44.09 398.63 46.36
  C 398.16 47.74 396.84 49.23 396.08 46.65
  A 0.95 0.93 -11.1 0 0 395.08 45.99
  Q 390.13 46.53 391.54 50.43
  C 392.25 52.41 394.62 53.82 396.18 55.43
  A 0.44 0.44 42.2 0 0 396.84 55.40
  C 399.36 52.28 405.26 47.11 404.43 42.94
  A 1.13 1.10 -82.4 0 0 403.88 42.20
  Z"
/>
<path fill="#a54a38" d="
  M 169.42 42.60
  Q 166.00 49.56 163.38 57.08
  C 162.98 58.24 157.61 69.05 156.59 65.47
  A 1.08 0.78 -37.3 0 1 156.85 64.60
  Q 159.16 61.90 158.21 58.81
  Q 155.37 49.65 151.68 40.86
  Q 151.33 40.03 151.16 40.92
  L 148.94 53.01
  A 2.67 2.44 -66.0 0 0 149.75 55.45
  L 153.34 58.48
  A 0.90 0.68 31.4 0 1 153.66 59.30
  Q 153.40 60.17 152.03 59.75
  Q 145.11 57.62 138.49 60.37
  A 0.54 0.44 -19.4 0 1 137.80 60.12
  Q 137.65 59.57 138.45 59.34
  Q 143.28 57.95 144.16 52.77
  Q 145.48 45.00 149.02 22.31
  Q 149.23 20.96 150.28 21.63
  A 1.46 1.05 -88.4 0 1 150.80 22.40
  Q 152.33 27.69 154.89 32.50
  C 157.52 37.43 158.88 41.54 160.61 46.31
  Q 161.13 47.74 161.79 46.37
  C 163.96 41.86 164.80 36.79 166.89 32.75
  Q 168.99 28.67 171.38 24.62
  Q 174.46 19.39 174.74 25.45
  Q 175.05 32.27 177.34 41.00
  C 179.01 47.34 178.11 55.60 183.40 60.37
  A 1.13 0.82 29.1 0 1 183.79 61.21
  Q 183.70 61.95 182.98 61.91
  Q 176.82 61.53 170.50 64.29
  Q 169.87 64.57 169.51 64.22
  A 0.48 0.39 -38.4 0 1 169.66 63.55
  Q 172.68 61.62 173.46 58.49
  C 174.42 54.63 171.54 46.71 170.33 42.68
  Q 169.97 41.48 169.42 42.60
  Z"
/>
<path fill="#a54a38" d="
  M 241.39 28.37
  Q 239.96 39.52 240.54 51.84
  C 240.77 56.74 240.57 59.21 243.74 62.23
  A 2.19 2.18 50.4 0 0 246.44 62.49
  Q 248.29 61.30 250.35 61.62
  A 0.39 0.39 -73.0 0 1 250.64 62.17
  Q 249.30 65.06 246.67 64.97
  Q 238.54 64.71 230.37 64.71
  C 224.30 64.71 232.17 62.15 232.18 62.14
  A 1.43 1.19 84.8 0 0 232.72 61.36
  C 235.34 51.49 234.89 38.80 234.12 28.65
  A 0.71 0.70 -85.5 0 0 233.59 28.02
  C 227.39 26.48 225.02 31.90 222.22 36.02
  A 1.17 0.89 -70.2 0 1 221.44 36.52
  C 219.95 36.61 220.51 35.12 220.95 34.38
  Q 223.84 29.53 223.18 23.74
  Q 222.96 21.79 224.73 22.60
  Q 230.34 25.15 236.70 23.64
  C 241.20 22.57 245.02 23.29 249.54 21.57
  A 1.07 1.03 74.8 0 1 250.94 22.41
  L 252.54 31.74
  Q 252.94 34.10 252.16 36.18
  Q 251.67 37.50 250.97 36.64
  A 1.58 0.98 -74.7 0 1 250.70 35.73
  Q 250.64 29.70 244.13 26.83
  Q 241.73 25.77 241.39 28.37
  Z"
/>
<path fill="#a54a38" d="
  M 371.15 26.94
  C 369.51 37.29 369.06 47.67 368.22 57.56
  A 0.91 0.88 -68.7 0 0 368.56 58.36
  C 371.29 60.48 378.80 63.53 381.02 59.97
  A 0.94 0.57 -63.6 0 1 381.77 59.49
  Q 381.97 59.53 382.08 59.70
  A 0.72 0.44 -55.8 0 1 382.05 60.31
  Q 380.45 63.60 376.47 63.37
  A 1.52 1.40 -58.2 0 0 375.57 63.62
  C 371.28 66.54 360.62 62.81 357.20 61.87
  Q 356.75 61.74 357.21 61.61
  C 362.33 60.12 362.49 50.49 363.32 45.95
  C 364.72 38.37 364.29 32.14 362.90 24.94
  A 1.40 1.15 -81.0 0 0 362.43 24.14
  Q 360.20 22.41 357.67 23.83
  A 1.25 0.80 -42.8 0 1 356.78 23.99
  C 355.87 23.68 358.04 22.52 358.47 22.31
  C 360.13 21.53 363.92 22.64 365.66 23.16
  C 368.33 23.97 370.64 23.99 373.29 24.38
  Q 373.79 24.45 373.30 24.61
  L 372.72 24.79
  A 2.82 2.12 89.2 0 0 371.15 26.94
  Z"
/>
<path fill="#a54a38" d="
  M 120.69 32.69
  Q 120.40 29.22 120.52 26.70
  A 1.17 1.05 -67.9 0 0 120.21 25.84
  Q 118.20 23.81 115.25 24.24
  A 1.13 0.76 -20.1 0 1 114.36 24.02
  C 112.27 21.89 124.12 23.19 125.73 23.44
  C 126.96 23.63 133.90 23.62 134.14 24.24
  A 0.41 0.34 -7.5 0 1 133.72 24.70
  Q 131.12 24.61 129.26 25.42
  Q 127.63 26.13 127.69 27.92
  Q 127.91 34.67 128.00 41.37
  C 128.07 46.11 128.99 51.45 129.02 56.59
  C 129.04 60.53 130.23 62.19 134.01 62.94
  Q 134.95 63.12 134.90 63.84
  A 0.60 0.49 3.7 0 1 134.27 64.29
  C 127.71 63.82 122.61 61.08 115.96 62.67
  A 0.47 0.35 -4.9 0 1 115.37 62.30
  C 115.51 61.53 120.36 61.92 120.72 57.24
  Q 121.68 44.47 120.69 32.69
  Z"
/>
<path fill="#a54a38" d="
  M 268.31 27.05
  Q 268.33 33.74 268.46 40.43
  C 268.55 45.39 269.41 51.22 269.50 56.69
  C 269.57 60.61 271.16 62.51 274.85 63.24
  A 0.87 0.61 4.5 0 1 275.52 63.79
  C 275.80 65.30 265.81 62.85 264.85 62.58
  C 261.39 61.65 259.69 62.20 256.25 62.76
  Q 255.28 62.92 255.70 62.28
  A 1.09 0.74 6.6 0 1 256.41 61.91
  C 259.22 61.59 260.92 60.20 261.20 57.20
  C 262.15 46.93 261.04 37.17 261.01 26.95
  A 1.71 1.33 -69.4 0 0 260.73 26.05
  Q 258.95 23.64 255.73 24.25
  A 1.04 0.75 -22.2 0 1 254.86 24.04
  C 252.90 21.85 264.64 23.17 266.24 23.42
  C 267.35 23.59 274.83 23.64 274.86 24.33
  A 0.55 0.36 0.5 0 1 274.29 24.70
  Q 271.54 24.63 269.16 25.72
  A 1.48 1.46 -12.7 0 0 268.31 27.05
  Z"
/>
</svg>
